<?xml version="1.0" encoding="UTF-8" standalone="no"?>
<!DOCTYPE svg PUBLIC "-//W3C//DTD SVG 1.1//EN"
 "http://www.w3.org/Graphics/SVG/1.1/DTD/svg11.dtd">
<!-- Generated by graphviz version 12.2.1 (20241206.2353)
 -->
<!-- Title: G Pages: 1 -->
<svg width="1998pt" height="116pt"
 viewBox="0.00 0.00 1997.75 116.00" xmlns="http://www.w3.org/2000/svg" xmlns:xlink="http://www.w3.org/1999/xlink">
<g id="graph0" class="graph" transform="scale(1 1) rotate(0) translate(4 112)">
<title>G</title>
<polygon fill="white" stroke="none" points="-4,4 -4,-112 1993.75,-112 1993.75,4 -4,4"/>
<!-- nodo1 -->
<g id="node1" class="node">
<title>nodo1</title>
<polygon fill="none" stroke="black" points="0,-0.5 0,-107.5 234.75,-107.5 234.75,-0.5 0,-0.5"/>
<text text-anchor="middle" x="9.88" y="-48.95" font-family="Times,serif" font-size="14.00"> </text>
<polyline fill="none" stroke="black" points="19.75,-0.5 19.75,-107.5"/>
<text text-anchor="middle" x="117.38" y="-90.2" font-family="Times,serif" font-size="14.00">aid: IPC&#45;001</text>
<text text-anchor="middle" x="117.38" y="-73.7" font-family="Times,serif" font-size="14.00">password: 1234</text>
<text text-anchor="middle" x="117.38" y="-57.2" font-family="Times,serif" font-size="14.00">full_name: Jose Perez</text>
<text text-anchor="middle" x="117.38" y="-40.7" font-family="Times,serif" font-size="14.00">phone: 12345678</text>
<text text-anchor="middle" x="117.38" y="-24.2" font-family="Times,serif" font-size="14.00">email: juan.prez@examlple.com</text>
<text text-anchor="middle" x="117.38" y="-7.7" font-family="Times,serif" font-size="14.00">address: Av. Siempre Viva 123</text>
<polyline fill="none" stroke="black" points="215,-0.5 215,-107.5"/>
<text text-anchor="middle" x="224.88" y="-48.95" font-family="Times,serif" font-size="14.00"> </text>
</g>
<!-- nodo2 -->
<g id="node2" class="node">
<title>nodo2</title>
<polygon fill="none" stroke="black" points="270.75,-0.5 270.75,-107.5 516,-107.5 516,-0.5 270.75,-0.5"/>
<text text-anchor="middle" x="280.62" y="-48.95" font-family="Times,serif" font-size="14.00"> </text>
<polyline fill="none" stroke="black" points="290.5,-0.5 290.5,-107.5"/>
<text text-anchor="middle" x="393.38" y="-90.2" font-family="Times,serif" font-size="14.00">aid: IPC&#45;002</text>
<text text-anchor="middle" x="393.38" y="-73.7" font-family="Times,serif" font-size="14.00">password: 5678</text>
<text text-anchor="middle" x="393.38" y="-57.2" font-family="Times,serif" font-size="14.00">full_name: Maria Lopez</text>
<text text-anchor="middle" x="393.38" y="-40.7" font-family="Times,serif" font-size="14.00">phone: 09876543</text>
<text text-anchor="middle" x="393.38" y="-24.2" font-family="Times,serif" font-size="14.00">email: maria.lopez@example.com</text>
<text text-anchor="middle" x="393.38" y="-7.7" font-family="Times,serif" font-size="14.00">address: Calle Falsa 456</text>
<polyline fill="none" stroke="black" points="496.25,-0.5 496.25,-107.5"/>
<text text-anchor="middle" x="506.12" y="-48.95" font-family="Times,serif" font-size="14.00"> </text>
</g>
<!-- nodo1&#45;&gt;nodo2 -->
<g id="edge1" class="edge">
<title>nodo1:f2&#45;&gt;nodo2:f1</title>
<path fill="none" stroke="black" d="M234.75,-54C246.12,-54 251.43,-54 259.3,-54"/>
<polygon fill="black" stroke="black" points="259.24,-57.5 269.24,-54 259.24,-50.5 259.24,-57.5"/>
</g>
<!-- nodo2&#45;&gt;nodo1 -->
<g id="edge2" class="edge">
<title>nodo2:f1&#45;&gt;nodo1:f2</title>
<path fill="none" stroke="black" d="M270.75,-54C259.38,-54 254.07,-54 246.2,-54"/>
<polygon fill="black" stroke="black" points="246.26,-50.5 236.26,-54 246.26,-57.5 246.26,-50.5"/>
</g>
<!-- nodo3 -->
<g id="node3" class="node">
<title>nodo3</title>
<polygon fill="none" stroke="black" points="552,-0.5 552,-107.5 805.5,-107.5 805.5,-0.5 552,-0.5"/>
<text text-anchor="middle" x="561.88" y="-48.95" font-family="Times,serif" font-size="14.00"> </text>
<polyline fill="none" stroke="black" points="571.75,-0.5 571.75,-107.5"/>
<text text-anchor="middle" x="678.75" y="-90.2" font-family="Times,serif" font-size="14.00">aid: IPC&#45;003</text>
<text text-anchor="middle" x="678.75" y="-73.7" font-family="Times,serif" font-size="14.00">password: abcd</text>
<text text-anchor="middle" x="678.75" y="-57.2" font-family="Times,serif" font-size="14.00">full_name: Carlos Gomez</text>
<text text-anchor="middle" x="678.75" y="-40.7" font-family="Times,serif" font-size="14.00">phone: 11223344</text>
<text text-anchor="middle" x="678.75" y="-24.2" font-family="Times,serif" font-size="14.00">email: carlos.gomez@example.com</text>
<text text-anchor="middle" x="678.75" y="-7.7" font-family="Times,serif" font-size="14.00">address: Av. Central 789</text>
<polyline fill="none" stroke="black" points="785.75,-0.5 785.75,-107.5"/>
<text text-anchor="middle" x="795.62" y="-48.95" font-family="Times,serif" font-size="14.00"> </text>
</g>
<!-- nodo2&#45;&gt;nodo3 -->
<g id="edge3" class="edge">
<title>nodo2:f2&#45;&gt;nodo3:f1</title>
<path fill="none" stroke="black" d="M516,-54C527.38,-54 532.68,-54 540.55,-54"/>
<polygon fill="black" stroke="black" points="540.49,-57.5 550.49,-54 540.49,-50.5 540.49,-57.5"/>
</g>
<!-- nodo3&#45;&gt;nodo2 -->
<g id="edge4" class="edge">
<title>nodo3:f1&#45;&gt;nodo2:f2</title>
<path fill="none" stroke="black" d="M552,-54C540.62,-54 535.32,-54 527.45,-54"/>
<polygon fill="black" stroke="black" points="527.51,-50.5 517.51,-54 527.51,-57.5 527.51,-50.5"/>
</g>
<!-- nodo4 -->
<g id="node4" class="node">
<title>nodo4</title>
<polygon fill="none" stroke="black" points="841.5,-0.5 841.5,-107.5 1092.75,-107.5 1092.75,-0.5 841.5,-0.5"/>
<text text-anchor="middle" x="851.38" y="-48.95" font-family="Times,serif" font-size="14.00"> </text>
<polyline fill="none" stroke="black" points="861.25,-0.5 861.25,-107.5"/>
<text text-anchor="middle" x="967.12" y="-90.2" font-family="Times,serif" font-size="14.00">aid: IPC&#45;004</text>
<text text-anchor="middle" x="967.12" y="-73.7" font-family="Times,serif" font-size="14.00">password: efgh</text>
<text text-anchor="middle" x="967.12" y="-57.2" font-family="Times,serif" font-size="14.00">full_name: Ana Martinez</text>
<text text-anchor="middle" x="967.12" y="-40.7" font-family="Times,serif" font-size="14.00">phone: 22334455</text>
<text text-anchor="middle" x="967.12" y="-24.2" font-family="Times,serif" font-size="14.00">email: ana.martinez@example.com</text>
<text text-anchor="middle" x="967.12" y="-7.7" font-family="Times,serif" font-size="14.00">address: Calle Luna 101</text>
<polyline fill="none" stroke="black" points="1073,-0.5 1073,-107.5"/>
<text text-anchor="middle" x="1082.88" y="-48.95" font-family="Times,serif" font-size="14.00"> </text>
</g>
<!-- nodo3&#45;&gt;nodo4 -->
<g id="edge5" class="edge">
<title>nodo3:f2&#45;&gt;nodo4:f1</title>
<path fill="none" stroke="black" d="M805.5,-54C816.88,-54 822.18,-54 830.05,-54"/>
<polygon fill="black" stroke="black" points="829.99,-57.5 839.99,-54 829.99,-50.5 829.99,-57.5"/>
</g>
<!-- nodo4&#45;&gt;nodo3 -->
<g id="edge6" class="edge">
<title>nodo4:f1&#45;&gt;nodo3:f2</title>
<path fill="none" stroke="black" d="M841.5,-54C830.12,-54 824.82,-54 816.95,-54"/>
<polygon fill="black" stroke="black" points="817.01,-50.5 807.01,-54 817.01,-57.5 817.01,-50.5"/>
</g>
<!-- nodo5 -->
<g id="node5" class="node">
<title>nodo5</title>
<polygon fill="none" stroke="black" points="1128.75,-0.5 1128.75,-107.5 1386,-107.5 1386,-0.5 1128.75,-0.5"/>
<text text-anchor="middle" x="1138.62" y="-48.95" font-family="Times,serif" font-size="14.00"> </text>
<polyline fill="none" stroke="black" points="1148.5,-0.5 1148.5,-107.5"/>
<text text-anchor="middle" x="1257.38" y="-90.2" font-family="Times,serif" font-size="14.00">aid: IPC&#45;005</text>
<text text-anchor="middle" x="1257.38" y="-73.7" font-family="Times,serif" font-size="14.00">password: ijkl</text>
<text text-anchor="middle" x="1257.38" y="-57.2" font-family="Times,serif" font-size="14.00">full_name: Pedro Ramirez</text>
<text text-anchor="middle" x="1257.38" y="-40.7" font-family="Times,serif" font-size="14.00">phone: 33445566</text>
<text text-anchor="middle" x="1257.38" y="-24.2" font-family="Times,serif" font-size="14.00">email: pedro.ramirez@example.com</text>
<text text-anchor="middle" x="1257.38" y="-7.7" font-family="Times,serif" font-size="14.00">address: Av. Sol 202</text>
<polyline fill="none" stroke="black" points="1366.25,-0.5 1366.25,-107.5"/>
<text text-anchor="middle" x="1376.12" y="-48.95" font-family="Times,serif" font-size="14.00"> </text>
</g>
<!-- nodo4&#45;&gt;nodo5 -->
<g id="edge7" class="edge">
<title>nodo4:f2&#45;&gt;nodo5:f1</title>
<path fill="none" stroke="black" d="M1092.75,-54C1104.12,-54 1109.43,-54 1117.3,-54"/>
<polygon fill="black" stroke="black" points="1117.24,-57.5 1127.24,-54 1117.24,-50.5 1117.24,-57.5"/>
</g>
<!-- nodo5&#45;&gt;nodo4 -->
<g id="edge8" class="edge">
<title>nodo5:f1&#45;&gt;nodo4:f2</title>
<path fill="none" stroke="black" d="M1128.75,-54C1117.38,-54 1112.07,-54 1104.2,-54"/>
<polygon fill="black" stroke="black" points="1104.26,-50.5 1094.26,-54 1104.26,-57.5 1104.26,-50.5"/>
</g>
<!-- nodo6 -->
<g id="node6" class="node">
<title>nodo6</title>
<polygon fill="none" stroke="black" points="1422,-0.5 1422,-107.5 1686,-107.5 1686,-0.5 1422,-0.5"/>
<text text-anchor="middle" x="1431.88" y="-48.95" font-family="Times,serif" font-size="14.00"> </text>
<polyline fill="none" stroke="black" points="1441.75,-0.5 1441.75,-107.5"/>
<text text-anchor="middle" x="1554" y="-90.2" font-family="Times,serif" font-size="14.00">aid: IPC&#45;006</text>
<text text-anchor="middle" x="1554" y="-73.7" font-family="Times,serif" font-size="14.00">password: mnop</text>
<text text-anchor="middle" x="1554" y="-57.2" font-family="Times,serif" font-size="14.00">full_name: Lucia Fernandez</text>
<text text-anchor="middle" x="1554" y="-40.7" font-family="Times,serif" font-size="14.00">phone: 44556677</text>
<text text-anchor="middle" x="1554" y="-24.2" font-family="Times,serif" font-size="14.00">email: lucia.fernandez@example.com</text>
<text text-anchor="middle" x="1554" y="-7.7" font-family="Times,serif" font-size="14.00">address: Calle Estrella 303</text>
<polyline fill="none" stroke="black" points="1666.25,-0.5 1666.25,-107.5"/>
<text text-anchor="middle" x="1676.12" y="-48.95" font-family="Times,serif" font-size="14.00"> </text>
</g>
<!-- nodo5&#45;&gt;nodo6 -->
<g id="edge9" class="edge">
<title>nodo5:f2&#45;&gt;nodo6:f1</title>
<path fill="none" stroke="black" d="M1386,-54C1397.38,-54 1402.68,-54 1410.55,-54"/>
<polygon fill="black" stroke="black" points="1410.49,-57.5 1420.49,-54 1410.49,-50.5 1410.49,-57.5"/>
</g>
<!-- nodo6&#45;&gt;nodo5 -->
<g id="edge10" class="edge">
<title>nodo6:f1&#45;&gt;nodo5:f2</title>
<path fill="none" stroke="black" d="M1422,-54C1410.62,-54 1405.32,-54 1397.45,-54"/>
<polygon fill="black" stroke="black" points="1397.51,-50.5 1387.51,-54 1397.51,-57.5 1397.51,-50.5"/>
</g>
<!-- nodo7 -->
<g id="node7" class="node">
<title>nodo7</title>
<polygon fill="none" stroke="black" points="1722,-0.5 1722,-107.5 1989.75,-107.5 1989.75,-0.5 1722,-0.5"/>
<text text-anchor="middle" x="1731.88" y="-48.95" font-family="Times,serif" font-size="14.00"> </text>
<polyline fill="none" stroke="black" points="1741.75,-0.5 1741.75,-107.5"/>
<text text-anchor="middle" x="1855.88" y="-90.2" font-family="Times,serif" font-size="14.00">aid: IPC&#45;007</text>
<text text-anchor="middle" x="1855.88" y="-73.7" font-family="Times,serif" font-size="14.00">password: qrst</text>
<text text-anchor="middle" x="1855.88" y="-57.2" font-family="Times,serif" font-size="14.00">full_name: Jorge Hernandez</text>
<text text-anchor="middle" x="1855.88" y="-40.7" font-family="Times,serif" font-size="14.00">phone: 55667788</text>
<text text-anchor="middle" x="1855.88" y="-24.2" font-family="Times,serif" font-size="14.00">email: jorge.hernandez@example.com</text>
<text text-anchor="middle" x="1855.88" y="-7.7" font-family="Times,serif" font-size="14.00">address: Av. Cometa 404</text>
<polyline fill="none" stroke="black" points="1970,-0.5 1970,-107.5"/>
<text text-anchor="middle" x="1979.88" y="-48.95" font-family="Times,serif" font-size="14.00"> </text>
</g>
<!-- nodo6&#45;&gt;nodo7 -->
<g id="edge11" class="edge">
<title>nodo6:f2&#45;&gt;nodo7:f1</title>
<path fill="none" stroke="black" d="M1686,-54C1697.38,-54 1702.68,-54 1710.55,-54"/>
<polygon fill="black" stroke="black" points="1710.49,-57.5 1720.49,-54 1710.49,-50.5 1710.49,-57.5"/>
</g>
<!-- nodo7&#45;&gt;nodo6 -->
<g id="edge12" class="edge">
<title>nodo7:f1&#45;&gt;nodo6:f2</title>
<path fill="none" stroke="black" d="M1722,-54C1710.62,-54 1705.32,-54 1697.45,-54"/>
<polygon fill="black" stroke="black" points="1697.51,-50.5 1687.51,-54 1697.51,-57.5 1697.51,-50.5"/>
</g>
</g>
</svg>
